# xmcd
# 
# Track frame offsets:
#     150
#     11408
#     36788
#     49797
#     75916
#     94336
#     106558
#     123250
#     145170
#     161258
# 
# Disc length: 2487
# 
# Revision: 14
# Processed by: cddbd v1.5.2PL0 Copyright (c) Steve Scherf et al.
# Submitted via: fre:ac v1.0.27
# 
DISCID=6809b50a
DTITLE=Gary Moore - Power Of The Blues
DYEAR=2004
DGENRE=Blues
TTITLE0=Power Of The Blues
TTITLE1=There's A Hole
TTITLE2=Tell Me Woman
TTITLE3=I Can't Quit You Baby (Otis Rush cover)
TTITLE4=That's Why I Play The Blues
TTITLE5=Evil (Howlin' Wolf cover)
TTITLE6=Getaway Blues
TTITLE7=Memory Pain (Percy Mayfield cover)
TTITLE8=Can't Find My Baby
TTITLE9=Torn Inside
EXTD=
EXTT0=
EXTT1=
EXTT2=
EXTT3=
EXTT4=
EXTT5=
EXTT6=
EXTT7=
EXTT8=
EXTT9=
PLAYORDER=
